<?xml version="1.0" encoding="utf-8"?>
<!-- Generator: Adobe Illustrator 22.1.0, SVG Export Plug-In . SVG Version: 6.00 Build 0)  -->
<svg version="1.1" id="Capa_1" xmlns="http://www.w3.org/2000/svg" xmlns:xlink="http://www.w3.org/1999/xlink" x="0px" y="0px"
	 viewBox="0 0 504 598" style="enable-background:new 0 0 504 598;" xml:space="preserve">
<style type="text/css">
	.st0{fill:#FC6F3D;}
	.st1{fill:#FF804C;}
	.st2{fill:#4D3015;}
	.st3{fill:url(#SVGID_1_);}
	.st4{fill:#FFFFFF;}
	.st5{fill:#FF5440;}
	.st6{fill:url(#SVGID_2_);}
	.st7{filter:url(#Adobe_OpacityMaskFilter);}
	.st8{fill:url(#SVGID_4_);}
	.st9{opacity:0.6;mask:url(#SVGID_3_);fill:url(#SVGID_5_);}
</style>
<path class="st0" d="M472.2,256.7c0,122.7-99.5,222.3-222.3,222.3c-122.7,0-222.3-99.5-222.3-222.3S127.2,34.5,249.9,34.5
	C372.7,34.5,472.2,134,472.2,256.7z"/>
<path class="st1" d="M375.1,185.8c-10.9-8.8-24.7-14-39.7-14c-9.4,0-18.3,2.1-26.4,5.7c0.3-0.3,0.6-0.6,1-0.9
	c2.7-2.1,5.1-4.6,7.9-6.7c2.8-2.2,5.4-4.5,8.4-6.4c2.7-2.3,5.8-4,8.6-6c2.8-2.1,5.9-3.5,8.7-5.4c2.8-1.9,5.9-3,8.6-4.7
	c2.7-1.7,5.5-2.8,8.1-4c2.6-1.1,4.9-2.7,7.2-3.5c2.2-0.8,4.2-1.8,5.8-2.5c3.3-1.5,5.2-2.6,5.2-2.6s-2-0.8-5.6-1.7
	c-1.8-0.4-4-1-6.6-1.4c-2.6-0.6-5.5-0.5-8.7-0.6c-3.2,0-6.7-0.1-10.3,0.7c-3.6,0.7-7.6,1.1-11.4,2.6c-3.8,1.4-7.9,2.5-11.6,4.8
	c-3.8,1.9-7.6,4.1-11,6.8c-3.5,2.5-6.8,5.4-9.8,8.5c-3.1,2.9-5.6,6.3-8.1,9.4c-2.2,3.4-4.4,6.5-6,9.8c-1.7,3.2-3.1,6.4-4.1,9.4
	c-2.1,6-3.1,11.2-3.5,14.9c-0.1,1.3-0.2,2.4-0.2,3.3c-4.8,7.6-8.1,16.3-9.3,25.7c-0.4,2.7-0.6,5.5-0.6,8.3
	c0,35.1,28.4,63.5,63.5,63.5s63.5-28.4,63.5-63.5C398.9,215.3,389.6,197.5,375.1,185.8z"/>
<path class="st2" d="M167.6,404.3c0,0,33.9-24.5,81.6-24.5c47.6,0,81.6,24.5,81.6,24.5s-15.2-67.9-81.6-67.9
	C182.8,336.4,167.6,404.3,167.6,404.3z"/>
<radialGradient id="SVGID_1_" cx="335.3991" cy="238.0314" r="59.0394" gradientUnits="userSpaceOnUse">
	<stop  offset="1.685390e-02" style="stop-color:#FFFFFF"/>
	<stop  offset="0.4705" style="stop-color:#FDFDFD"/>
	<stop  offset="0.6339" style="stop-color:#F6F6F6"/>
	<stop  offset="0.7504" style="stop-color:#EBEBEB"/>
	<stop  offset="0.8445" style="stop-color:#DADADA"/>
	<stop  offset="0.9242" style="stop-color:#C4C4C4"/>
	<stop  offset="0.9945" style="stop-color:#A9A9A9"/>
	<stop  offset="1" style="stop-color:#A7A7A7"/>
</radialGradient>
<path class="st3" d="M394.4,238c0,32.6-26.4,59-59,59s-59-26.4-59-59c0-3.5,0.3-6.9,0.9-10.2c4.8-27.7,29-48.8,58.1-48.8
	c13.1,0,25.2,4.3,35,11.5C385,201.2,394.4,218.5,394.4,238z"/>
<ellipse transform="matrix(0.8113 -0.5846 0.5846 0.8113 -74.2947 240.4891)" cx="335.4" cy="235.3" rx="23.3" ry="23.3"/>
<path class="st4" d="M340.6,235.3c0,2.9-2.3,5.2-5.2,5.2c-2.9,0-5.2-2.3-5.2-5.2c0-2.9,2.3-5.2,5.2-5.2
	C338.3,230.2,340.6,232.5,340.6,235.3z"/>
<path class="st5" d="M370.4,187.8l-93.1,37.3c4.8-27.7,29-48.8,58.1-48.8C348.5,176.3,360.6,180.6,370.4,187.8z"/>
<radialGradient id="SVGID_2_" cx="164.4636" cy="235.3352" r="59.044" gradientUnits="userSpaceOnUse">
	<stop  offset="1.685390e-02" style="stop-color:#FFFFFF"/>
	<stop  offset="0.4705" style="stop-color:#FDFDFD"/>
	<stop  offset="0.6339" style="stop-color:#F6F6F6"/>
	<stop  offset="0.7504" style="stop-color:#EBEBEB"/>
	<stop  offset="0.8445" style="stop-color:#DADADA"/>
	<stop  offset="0.9242" style="stop-color:#C4C4C4"/>
	<stop  offset="0.9945" style="stop-color:#A9A9A9"/>
	<stop  offset="1" style="stop-color:#A7A7A7"/>
</radialGradient>
<path class="st6" d="M223.5,235.3c0,32.6-26.4,59-59,59c-32.6,0-59-26.4-59-59c0-32.6,26.4-59,59-59
	C197.1,176.3,223.5,202.7,223.5,235.3z"/>
<path d="M187.7,235.3c0,12.8-10.4,23.3-23.3,23.3c-12.8,0-23.3-10.4-23.3-23.3s10.4-23.3,23.3-23.3
	C177.3,212.1,187.7,222.5,187.7,235.3z"/>
<path class="st5" d="M129.5,187.8l93.1,37.3c-4.8-27.7-29-48.8-58.1-48.8C151.4,176.3,139.3,180.6,129.5,187.8z"/>
<path class="st2" d="M280.5,201.5c0,0-0.2-2.2,0.2-5.9c0.3-3.7,1.3-8.9,3.4-14.9c1-3,2.4-6.2,4.1-9.4c1.6-3.3,3.8-6.5,6-9.8
	c2.5-3.1,4.9-6.5,8.1-9.4c3-3,6.2-5.9,9.8-8.5c3.4-2.6,7.2-4.9,11-6.8c3.7-2.2,7.8-3.4,11.6-4.8c3.8-1.5,7.8-1.9,11.4-2.6
	c3.6-0.7,7.1-0.7,10.3-0.7c3.2,0.1,6.1,0.1,8.7,0.6c2.6,0.4,4.8,1,6.6,1.4c3.6,0.9,5.6,1.7,5.6,1.7s-2,1.1-5.2,2.6
	c-1.6,0.7-3.6,1.7-5.8,2.5c-2.2,0.8-4.6,2.4-7.2,3.5c-2.6,1.2-5.4,2.3-8.1,4c-2.7,1.6-5.8,2.7-8.6,4.7c-2.8,1.8-5.9,3.3-8.7,5.4
	c-2.9,2-5.9,3.7-8.6,6c-2.9,1.9-5.6,4.3-8.4,6.4c-2.8,2.1-5.2,4.6-8,6.7c-2.4,2.4-5.1,4.5-7.3,6.8c-2.4,2.2-4.6,4.3-6.6,6.3
	c-4.2,4-7.7,7.6-10.2,10.1C282,200,280.5,201.5,280.5,201.5z"/>
<path class="st2" d="M218.7,201.5c0,0,0.2-2.2-0.2-5.9c-0.3-3.7-1.3-8.9-3.4-14.9c-1-3-2.4-6.2-4.1-9.4c-1.6-3.3-3.8-6.5-6-9.8
	c-2.5-3.1-4.9-6.5-8.1-9.4c-3-3-6.2-5.9-9.8-8.5c-3.4-2.6-7.2-4.9-11-6.8c-3.7-2.2-7.8-3.4-11.6-4.8c-3.8-1.5-7.8-1.9-11.4-2.6
	c-3.6-0.7-7.1-0.7-10.3-0.7c-3.2,0.1-6.1,0.1-8.7,0.6c-2.6,0.4-4.8,1-6.6,1.4c-3.6,0.9-5.6,1.7-5.6,1.7s2,1.1,5.2,2.6
	c1.6,0.7,3.6,1.7,5.8,2.5c2.2,0.8,4.6,2.4,7.2,3.5c2.6,1.2,5.4,2.3,8.1,4c2.7,1.6,5.8,2.7,8.6,4.7c2.8,1.8,5.9,3.3,8.7,5.4
	c2.9,2,5.9,3.7,8.6,6c2.9,1.9,5.6,4.3,8.4,6.4c2.8,2.1,5.2,4.6,8,6.7c2.4,2.4,5.1,4.5,7.3,6.8c2.4,2.2,4.6,4.3,6.6,6.3
	c4.2,4,7.7,7.6,10.2,10.1C217.2,200,218.7,201.5,218.7,201.5z"/>
<path class="st5" d="M256.1,34.6c-5.2,0.1-10.4,0.3-15.5,0.7c115.6,6.7,208,101.8,209.3,219.2c1.3,117.4-88.9,214.5-204.4,223.8
	c5.1,0.3,10.3,0.4,15.5,0.4c122.8-1.4,221.2-101.9,219.9-224.5C479.6,131.5,378.9,33.2,256.1,34.6z"/>
<path class="st4" d="M169.6,235.3c0,2.9-2.3,5.2-5.2,5.2c-2.9,0-5.2-2.3-5.2-5.2c0-2.9,2.3-5.2,5.2-5.2
	C167.3,230.2,169.6,232.5,169.6,235.3z"/>
<defs>
	<filter id="Adobe_OpacityMaskFilter" filterUnits="userSpaceOnUse" x="98.5" y="507.9" width="317.4" height="41.1">
		<feColorMatrix  type="matrix" values="1 0 0 0 0  0 1 0 0 0  0 0 1 0 0  0 0 0 1 0"/>
	</filter>
</defs>
<mask maskUnits="userSpaceOnUse" x="98.5" y="507.9" width="317.4" height="41.1" id="SVGID_3_">
	<g class="st7">
		
			<radialGradient id="SVGID_4_" cx="862.0314" cy="719.3051" r="96.0695" gradientTransform="matrix(-1.6526 4.400000e-03 1.270000e-02 -0.2139 1672.6975 678.5223)" gradientUnits="userSpaceOnUse">
			<stop  offset="0" style="stop-color:#FFFFFF"/>
			<stop  offset="0.1213" style="stop-color:#D2D2D1"/>
			<stop  offset="0.3023" style="stop-color:#969692"/>
			<stop  offset="0.4757" style="stop-color:#63635E"/>
			<stop  offset="0.6368" style="stop-color:#3C3C35"/>
			<stop  offset="0.7828" style="stop-color:#1F1F18"/>
			<stop  offset="0.9086" style="stop-color:#0E0E06"/>
			<stop  offset="1" style="stop-color:#080800"/>
		</radialGradient>
		<path class="st8" d="M98.5,528.9c0.8-11.3,72.4-20.8,160.1-21c87.6-0.2,158,8.8,157.4,20.1c-0.3,11.3-72.1,20.7-159.9,21
			C168.3,549.2,97.7,540.2,98.5,528.9z"/>
	</g>
</mask>
<linearGradient id="SVGID_5_" gradientUnits="userSpaceOnUse" x1="98.5173" y1="528.4554" x2="415.957" y2="528.4554">
	<stop  offset="0" style="stop-color:#4D3015"/>
	<stop  offset="0.474" style="stop-color:#4B2F14"/>
	<stop  offset="0.6447" style="stop-color:#442B13"/>
	<stop  offset="0.7665" style="stop-color:#39230F"/>
	<stop  offset="0.8649" style="stop-color:#28190B"/>
	<stop  offset="0.9481" style="stop-color:#120B05"/>
	<stop  offset="1" style="stop-color:#000000"/>
</linearGradient>
<path class="st9" d="M98.5,528.9c0.8-11.3,72.4-20.8,160.1-21c87.6-0.2,158,8.8,157.4,20.1c-0.3,11.3-72.1,20.7-159.9,21
	C168.3,549.2,97.7,540.2,98.5,528.9z"/>
</svg>
