<?xml version="1.0" encoding="utf-8"?>
<!-- Generator: Adobe Illustrator 22.1.0, SVG Export Plug-In . SVG Version: 6.00 Build 0)  -->
<svg version="1.1" id="Capa_1" xmlns="http://www.w3.org/2000/svg" xmlns:xlink="http://www.w3.org/1999/xlink" x="0px" y="0px"
	 viewBox="0 0 122 186" style="enable-background:new 0 0 122 186;" xml:space="preserve">
<style type="text/css">
	.st0{fill:#FFFFFF;}
</style>
<g>
	<path class="st0" d="M69.8,3.4c-0.2,5.2,2.9,7.8,6.4,10.2C87.6,21.4,95,32.1,99.6,44.9c2.4,6.8,5.6,13.3,9.1,19.6
		c1.8,3.3,3.1,7,4,10.7c1.2,4.9,2.9,9.4,5.6,13.6c1.2,1.9,2.3,3.9,1.3,6.3c-1,2.3-2.6,3.5-5.1,3.3c-5.1-0.4-9.5-2.5-12.3-6.7
		c-2.5-3.7-4.2-7.9-6.1-11.9c-1.8-3.6-4-6.9-7.2-9.3c-2.7-2-5.5-3.8-8.9-2.4c-3.6,1.4-5.1,4.7-5.2,8.2c-0.1,4.7,0.2,9.4,0.7,14
		c1.5,15.1,3.2,30.1,4.8,45.2c0.4,3.9,1,7.9,1.4,11.8c0.1,1.4,0.1,2.8-0.1,4.2c-0.5,4.8-4.6,7.6-9.2,6.4c-1.9-0.5-3.2-1.9-3.8-3.7
		c-0.8-2.5-1.5-5-2-7.6c-2.6-14.5-5.2-29.1-7.7-43.6c-0.3-1.6-0.8-2.2-2.5-2.4c-2.6-0.2-5.2-0.7-7.8-1.1c-4.1-0.7-6.6-3.5-8.1-7
		c-1.2-2.7-3-4-5.7-4.4c-9-1.5-14.8-7.3-18.8-15c-1.9-3.7-3.8-6.9-7.7-9C4.4,62.2,3.3,58.1,3.7,54c0.8-8.8,1.7-17.5,3-26.2
		c0.6-4.2,2.2-8.2,3.3-12.3c0.5-1.8,0.9-3.7,1.5-5.5c0.2-0.5,0.8-1.2,1.3-1.4c11.9-2.9,24-4.7,36.2-5C55.8,3.4,62.6,3.5,69.8,3.4z"
		/>
	<path class="st0" d="M49.8,113.9c0.1,0.3,0.2,0.5,0.3,0.6c1.5,3.9,1.9,7.6-1.9,10.5c-13.7,18.7-3.1,45.9,19.7,50.2
		c19.6,3.7,37.5-10.6,38.2-30.6c0.4-13.4-8.1-26-20.8-30.7c-1.3-0.5-2-1.2-2.2-2.5c-0.3-1.7-0.7-3.3-1.1-5
		c11.6-0.6,27.1,15,30.1,30.2c3.6,18.7-7.2,37.5-25.2,43.7c-18.1,6.3-38.4-1.8-47.1-18.7C30.9,144.3,36.4,124.2,49.8,113.9z"/>
	<path class="st0" d="M59.3,122.6c2.3,3.2,2.3,5.4-0.4,8.7c-2.9,3.4-4.3,7.3-4.6,11.7c-0.6,10.9,7.1,19.6,18.1,20.5
		c11.2,0.9,20.2-6.4,21.5-17.2c1-8.4-2-14.9-9.2-19c-3.7-2.1-3.7-5-3.7-8.4c8.5,1.2,17.5,9.5,18.9,21.2c1.6,13.9-6.2,25.8-19.1,29
		c-13.3,3.4-25.7-2.9-30.7-15.6C45.3,141.7,49.3,128.1,59.3,122.6z"/>
</g>
</svg>
