<?xml version="1.0" encoding="utf-8"?>
<!-- Generator: Adobe Illustrator 21.1.0, SVG Export Plug-In . SVG Version: 6.00 Build 0)  -->
<svg version="1.1" id="Layer_1" xmlns="http://www.w3.org/2000/svg" xmlns:xlink="http://www.w3.org/1999/xlink" x="0px" y="0px"
	 viewBox="0 0 169.1 160.7" style="enable-background:new 0 0 169.1 160.7;" xml:space="preserve">
<g>
	<g>
		<path d="M126.8,127.5L125,98l10.5-10.5c0.8-0.8,0.8-2,0-2.8l-7.9-7.9c-0.8-0.8-2-0.8-2.8,0l-1.1,1.1l-1.1-18.1l8-8
			c4.3-4.3,7.2-9.2,8.6-14.6c0.9-3.3-0.1-6.7-2.5-9.1c0,0,0,0,0,0c-2.4-2.4-5.8-3.3-9.1-2.5c-5.4,1.4-10.3,4.3-14.6,8.6l-8,8
			L87,41.2l1.1-1.1c0.8-0.8,0.8-2,0-2.8l-7.9-7.9c-0.8-0.8-2-0.8-2.8,0L66.9,39.9l-29.5-1.9c-4.2-0.3-6.8,2.6-7.6,5.6
			c-0.5,2.2-0.1,4.9,1.8,6.8c0.6,0.6,1.4,1.2,2.4,1.6l9.4,4c1,0.4,2.1,0,2.5-1c0.4-1,0-2.1-1-2.5l-9.4-4c-1.9-0.8-2.3-2.6-2-3.9
			c0.3-1.3,1.4-2.7,3.5-2.6l64.2,4L80,67.3L52.8,55.8c-1-0.4-2.1,0-2.5,1c-0.4,1,0,2.1,1,2.5l25.8,10.9L61.8,85.6
			c-1.9,1.9-3.5,3.9-4.9,6.1H38.3c-1.9,0-3.5,1.2-4.1,3c-0.5,1.6-0.1,3.2,1,4.3c0.2,0.2,0.4,0.4,0.6,0.5l14.3,9.8
			c-0.1,0.8,0,1.7,0.4,2.4l-6.2,6.2c-0.8,0.8-0.8,2-0.1,2.8c0.8,0.8,2,0.8,2.8,0l6.2-6.2c0.8,0.3,1.6,0.4,2.4,0.3l9.9,14.3
			c0.2,0.2,0.3,0.4,0.5,0.6c1.1,1.1,2.7,1.5,4.3,1c1.8-0.6,3-2.2,3-4.1v-18.5c2.2-1.4,4.2-3.1,6.1-4.9l7.1-7.1c0.8-0.8,0.8-2,0-2.8
			c-0.8-0.8-2-0.8-2.8,0l-7.1,7.1c-4.1,4.1-9.2,7.1-14.8,8.7l-4.4,1.3l8-8c0.8-0.8,0.8-2,0.1-2.8c-0.8-0.8-2-0.8-2.8,0l-8,8l1.3-4.5
			c1.6-5.6,4.6-10.7,8.7-14.8l51.2-51.2c3.8-3.8,8.1-6.3,12.8-7.6c1.9-0.5,4,0,5.4,1.5c0,0,0,0,0,0c1.4,1.4,2,3.4,1.5,5.4
			c-1.2,4.7-3.8,9-7.6,12.8L90.1,86.9c-0.8,0.8-0.8,2,0,2.8c0.8,0.8,2,0.8,2.8,0l1.7-1.7l18.2,42.9c0.4,1,1,1.8,1.6,2.4
			c1.9,1.9,4.5,2.3,6.8,1.8C124.2,134.3,127.1,131.7,126.8,127.5z M81.8,40.9l-9.7-0.6l6.7-6.7l5.1,5.1L81.8,40.9z M62.8,112.8
			c2.3-0.6,4.5-1.5,6.6-2.5l0,16.3c0,0.1,0,0.3-0.3,0.4c-0.3,0.1-0.4-0.1-0.4-0.1l-9.1-13.1L62.8,112.8z M52.1,102.1l-0.9,3.2
			l-13.1-9c-0.1,0-0.2-0.2-0.1-0.4c0.1-0.3,0.3-0.3,0.4-0.3l16.3,0C53.6,97.6,52.7,99.8,52.1,102.1z M126.2,81l5.1,5.1l-6.7,6.7
			l-0.6-9.7L126.2,81z M120.3,131.3c-1.3,0.3-3.1,0-3.9-2L97.6,84.9l21.3-21.3l4,64.2C123.1,129.9,121.6,131,120.3,131.3z"/>
	</g>
</g>
<g>
	<g>
		<path d="M130.7,42.4c0-4.5-3.7-8.2-8.2-8.2c-1.1,0-1.9,0.9-1.9,1.9c0,1.1,0.9,1.9,1.9,1.9c2.4,0,4.3,1.9,4.3,4.3
			c0,0.5,0.2,1,0.6,1.4c0.4,0.4,0.8,0.6,1.4,0.6C129.9,44.3,130.7,43.4,130.7,42.4z"/>
	</g>
</g>
</svg>
