<?xml version="1.0" encoding="utf-8"?>
<!-- Generator: Adobe Illustrator 21.1.0, SVG Export Plug-In . SVG Version: 6.00 Build 0)  -->
<svg version="1.1" id="Layer_1" xmlns="http://www.w3.org/2000/svg" xmlns:xlink="http://www.w3.org/1999/xlink" x="0px" y="0px"
	 viewBox="0 0 426 223" style="enable-background:new 0 0 426 223;" xml:space="preserve">
<g>
	<path d="M236.4,73.3C233.6,66,229.9,62.4,222,63c-11,0.8-22,0.4-33.1,0.1c-1.9-0.1-3.8-2.1-5.7-3.2c1.8-1,3.6-2.8,5.5-2.8
		c13.4-0.2,26.8,0,40.1-0.2c3.7,0,6.5,1.2,7.9,4.5c4.5,10.4,12.3,12.5,23.2,12.3c41.4-0.7,82.8-0.3,124.2-0.3
		c12.1,0,16.8,4.6,16.8,16.6c0,27.5,0,55,0,82.4c0,11.4-4.7,16.1-16.1,16.1c-13.7,0-27.4-0.2-41.1,0.1c-5.2,0.1-6.6-2-6.5-6.7
		c0.1-4.1,0-8.4-1.2-12.3c-2.9-9.4-12.5-14.3-23.6-12.8c-9.9,1.3-16,8.2-16.8,18.9c0,0.4,0,0.7,0,1.1c-0.4,11.7-0.4,11.7-12,11.7
		c-51,0-102,0-152.9,0c-2.2,0-4.3,0-6.5-0.2c-8.7-0.5-8.7-0.6-9-9.4c-0.5-12.8-8.4-21.8-19.8-22.3c-12.7-0.6-21.6,7.8-22.1,20.6
		c-0.4,11.2-0.4,11.2-11.4,11.2c-8.5,0-17,0.1-25.5,0c-9-0.1-14.3-5.2-14.3-14.1c-0.1-28.9-0.1-57.9,0-86.8
		c0-9.3,5.5-14.2,15.3-14.2c64.2,0,128.4,0,192.5,0C231.9,73.3,233.9,73.3,236.4,73.3z M343.9,182c15.3,0,30.1,0.2,44.8-0.1
		c4.4-0.1,5.9-3.7,5.9-7.7c0-9.2,0.2-18.4-0.1-27.7c0-1.6-1.6-3.9-3-4.6c-4.2-2.1-6.4-5.2-6.4-9.8c0-10.1,0-20.3,0-30.4
		c0-4.8,2.1-8.1,6.7-10.2c1.3-0.6,2.7-2.7,2.8-4.2c0.2-5.4-2.8-7.6-10-7.6c-85.5,0-171,0-256.5,0c-30,0-60,0-90,0
		c-7.2,0-9.4,2.2-9.5,9.3c-0.1,4,0,8,0,11.9c0,23.9,0,47.7,0,71.6c0,7.3,2.1,9.4,9.3,9.5c3.8,0.1,7.6,0,11.4,0c5.9,0,11.7,0,17.5,0
		c1.9-21.4,10.8-31.6,26.9-31.8c16.7-0.2,26.2,10.2,28.4,31.5c55.7,0,111.4,0,167,0c2.1-21.5,9.1-30.4,24.2-31.5
		c7.4-0.5,14.4,0.7,20.5,5.2C342.4,162.1,344.1,171.5,343.9,182z M394.1,136.1c0-13.1,0-25.4,0-38.1
		C390.5,101.8,390.4,131.4,394.1,136.1z"/>
	<path d="M49.7,18.5c9,2.6,17.1,4.9,25.3,7.2c32.4,9.3,64.7,18.6,97.1,28.1c1.9,0.5,3.2,2.9,4.8,4.5c-2.2,0.5-4.6,1.8-6.5,1.3
		C130.5,48.3,90.7,36.9,50.9,25.3c-1.7-0.5-2.9-2.6-4.4-3.9C47.6,20.4,48.8,19.3,49.7,18.5z"/>
	<path d="M169.7,71.7c-6.3-1.8-11.6-3.3-17-4.9c-34.7-10-69.3-19.9-104-29.9c-0.9-0.2-2-0.2-2.6-0.8c-1.3-1.2-2.3-2.7-3.4-4
		c1.8-0.7,3.8-2.3,5.3-1.9c8.9,2.2,17.7,5,26.5,7.5c31.2,9,62.4,17.9,93.6,27c1.8,0.5,3.2,2.7,4.8,4.1
		C171.7,69.8,170.6,70.8,169.7,71.7z"/>
	<path d="M297.7,178.5c0-10.5,8.4-19,18.8-19.1c10.5-0.1,19.2,8.6,19.2,19.3c-0.1,10.5-8.4,19-18.8,19.1
		C306.4,198,297.7,189.1,297.7,178.5z M329.3,178.8c0.1-7-5.6-12.8-12.5-12.9c-6.9-0.1-12.7,5.6-12.8,12.6s5.6,12.9,12.5,13
		C323.3,191.5,329.2,185.6,329.3,178.8z"/>
	<path d="M113.3,178.8c-0.1,10.2-8.8,19-18.9,19.1c-10.5,0.1-19.1-8.7-19-19.4c0.1-10.5,8.4-18.9,18.8-19
		C104.7,159.3,113.3,168,113.3,178.8z M106.9,178.4c-0.1-6.9-6-12.8-12.8-12.7c-6.9,0.1-12.5,6-12.4,13s5.9,12.7,12.7,12.7
		C101.2,191.3,107,185.4,106.9,178.4z"/>
	<path d="M179.8,60.9c1.6,2.2,3.4,3.6,3.1,4.4c-0.5,1.6-2.1,2.9-3.2,4.3c-1.1-1-3.1-2.1-3-3C176.9,65,178.3,63.5,179.8,60.9z"/>
	<path d="M62.3,91c6.3,0,12.7-0.1,19,0c6.6,0.2,10,3.5,10,10.2c0.1,10.3,0.1,20.6,0,30.9c-0.1,6.9-3.5,10.2-10.5,10.3
		c-12.1,0.1-24.2,0.1-36.3,0c-7.2-0.1-10.3-3.3-10.4-10.2c-0.1-10.3-0.1-20.6,0-30.9c0-7.1,3-10.1,10.3-10.3
		C50.4,91,56.4,91,62.3,91z M40.5,111.4c0,7.4-0.2,14.4,0.2,21.4c0.1,1.2,2.4,3.2,3.8,3.2c12.1,0.3,24.2,0.3,36.2,0
		c1.4,0,4-1.9,4-3.1c0.4-7.1,0.2-14.2,0.2-21.5C69.9,111.4,55.7,111.4,40.5,111.4z M84.5,105.8c1-7.9,0.6-8.4-6.6-8.4
		c-10.1,0-20.2,0-30.3,0c-7.5,0-7.8,0.5-6.4,8.4C55.5,105.8,69.8,105.8,84.5,105.8z"/>
	<path d="M273.2,142.5c-5.8,0-11.6,0.1-17.3,0c-7.7-0.1-11-3.3-11-10.9c-0.1-9.9-0.1-19.9,0-29.8c0.1-7.3,3.3-10.7,10.6-10.7
		c12.1-0.1,24.2-0.1,36.3,0c7.1,0.1,10.3,3.3,10.3,10.3c0.1,10.3,0.1,20.6,0,30.9c0,6.7-3.2,10-9.9,10.2
		C285.9,142.6,279.5,142.5,273.2,142.5z M251.2,111.5c0,7.4-0.2,14.2,0.2,21c0.1,1.3,2.3,3.4,3.6,3.5c12.2,0.3,24.5,0.3,36.7,0
		c1.3,0,3.6-2.1,3.7-3.3c0.4-6.9,0.2-13.9,0.2-21.2C280.7,111.5,266.4,111.5,251.2,111.5z M251.6,105.7c14.8,0,29.3,0,43.7,0
		c0.7-8.1,0.6-8.2-6.7-8.2c-10.1,0-20.2,0-30.3,0C251.1,97.5,250.8,97.8,251.6,105.7z"/>
	<path d="M132.3,142.5c-6,0-11.9,0.1-17.9,0c-6.8-0.2-9.9-3.3-10-10.1c-0.1-10.5-0.1-20.9,0-31.4c0.1-6.5,3.2-9.8,9.6-9.9
		c12.5-0.2,24.9-0.1,37.4,0c6.7,0.1,10,3.2,10.1,10.1c0.2,10.5,0.2,20.9,0,31.4c-0.1,6.7-3.5,9.7-10.3,9.9
		C144.9,142.6,138.6,142.5,132.3,142.5z M155.3,111.5c-15.2,0-29.6,0-44.5,0c0,7.3-0.2,14.3,0.2,21.2c0.1,1.2,2.5,3.2,3.8,3.2
		c12.1,0.3,24.1,0.3,36.2,0c1.5,0,4-2.3,4.1-3.6C155.5,125.6,155.3,118.8,155.3,111.5z M154.9,105.8c0.7-7.9,0.3-8.4-6.4-8.4
		c-10.3,0-20.5,0-30.8,0c-7.3,0-8,1-6.1,8.4C125.9,105.8,140.3,105.8,154.9,105.8z"/>
	<path d="M344,91.1c6.1,0,12.3-0.1,18.4,0c6.6,0.2,10,3.6,10.1,10.1c0.1,10.5,0.1,21,0,31.4c-0.1,5.9-3.4,9.7-9.3,9.8
		c-12.8,0.2-25.7,0.2-38.5,0c-6.1-0.1-9.4-3.6-9.5-9.6c-0.1-10.7-0.1-21.3,0-32c0.1-6.4,3.3-9.6,9.8-9.8
		C331.4,90.9,337.7,91.1,344,91.1z M321.6,111.4c0,7.4-0.2,14.2,0.2,21c0.1,1.3,2.6,3.5,4,3.6c12.1,0.3,24.2,0.2,36.3,0
		c1.3,0,3.8-1.7,3.8-2.7c0.3-7.3,0.2-14.6,0.2-22C350.9,111.4,336.7,111.4,321.6,111.4z M365.8,105.9c0.7-8.2,0.6-8.4-6.8-8.4
		c-10.1,0-20.2,0-30.3,0c-7.3,0-8,0.8-6.3,8.4C336.7,105.9,351.1,105.9,365.8,105.9z"/>
	<path d="M203.1,142.5c-6,0-11.9,0.1-17.9,0c-6.9-0.1-10.4-3-10.6-9.6c-0.4-11-0.3-22,0-33c0.2-5.4,3.7-8.7,9.2-8.7
		c12.8-0.2,25.6-0.2,38.4,0c5.9,0.1,9.4,4.2,9.5,10.1c0.1,10.5,0.1,20.9,0,31.4c-0.1,6.4-3.2,9.6-9.6,9.8
		C215.7,142.6,209.4,142.5,203.1,142.5z M180.9,111.3c0,7.5-0.2,14.3,0.2,21.2c0.1,1.3,2.3,3.5,3.6,3.5c12.3,0.3,24.6,0.3,36.9,0
		c1.3,0,3.5-1.8,3.6-2.9c0.3-7.1,0.2-14.3,0.2-21.9C210.3,111.3,196,111.3,180.9,111.3z M224.7,106.1c1.2-7.9,0.7-9.1-4.1-9
		c-11,0.1-22,0.3-32.9,0.4c-7,0.1-7.6,0.8-6.1,8.7C195.8,106.1,210.1,106.1,224.7,106.1z"/>
</g>
</svg>
